<svg xmlns="http://www.w3.org/2000/svg" xmlns:xlink="http://www.w3.org/1999/xlink" viewBox="0 0 1338.4 507.73"><defs><style>.cls-1{fill:#dceaff;}.cls-2{clip-path:url(#clip-path);}.cls-3{fill:none;}.cls-4{fill:#b2cefe;}</style><clipPath id="clip-path"><rect class="cls-1" x="52.53" width="1283.89" height="507.73"/></clipPath></defs><title>Asset 6</title><g id="Layer_2" data-name="Layer 2"><g id="Images_fonts_colours" data-name="Images / fonts / colours"><rect class="cls-1" x="52.53" width="1283.89" height="507.73"/><g class="cls-2"><rect class="cls-3" x="52.53" width="1283.89" height="507.73"/><path class="cls-4" d="M150,403.34c2.86,1.86,5.11,5,5.18,8.45.16,4.46-2.53,8.45-5.54,11.51-2.54,2.59-5.51,5.36-9.3,5.71-2.34.29-4-1.78-5-3.59a25.58,25.58,0,0,1-1.2-13.94c.66-3,2-6.23,4.86-7.82A10.59,10.59,0,0,1,150,403.34Z"/><path class="cls-4" d="M170.9,424.52a12.41,12.41,0,0,1,4.42,4.25c2.4,4,1.3,9.47-1.86,12.76-3.71,3.27-8.94,3.62-13.64,3.38-3.67-.38-7.85-1.19-10-4.57-.79-2.09,0-4.36,1.09-6.2a29.76,29.76,0,0,1,8.12-8.24,15.71,15.71,0,0,1,5.82-2.41A11.33,11.33,0,0,1,170.9,424.52Z"/><path class="cls-4" d="M118.41,406.45a9.52,9.52,0,0,1,5.75,8.2c0,4.17-.48,8.56-2.77,12.15-.87,1.34-2.15,2.78-3.9,2.73-2.73.06-4.79-2.08-6.49-3.95-2.38-2.86-4.41-6.25-4.82-10a9,9,0,0,1,12.23-9.13Z"/><path class="cls-4" d="M166.68,454.94A9.34,9.34,0,0,1,172,460c2.32,4.65-.86,10.79-5.8,12.06-4,1.27-8.11-1-11.44-3.1-2.42-1.83-5.13-4-5.68-7.17-.43-2.92,2.47-4.72,4.78-5.71C157.91,454.65,162.46,453.81,166.68,454.94Z"/><path class="cls-4" d="M139,437.11c3.83,2.43,4.38,7.29,5.29,11.35.89,5.73,1.11,11.71-.45,17.35-1.35,4.16-4,8.29-8.29,9.9-6,2.81-14.1.06-16.77-6.09-1.08-2.29-.83-4.87-1.31-7.29a1.56,1.56,0,0,0-1.51-1.23c-2.78-.38-5.77-.36-8.21-1.94a13,13,0,0,1-5.06-15.58c1.5-4.24,5.37-7.17,9.49-8.61s8.46-1.35,12.71-1.12A33.87,33.87,0,0,1,139,437.11Z"/><path class="cls-4" d="M150,148.81c2.86,1.86,5.11,4.94,5.18,8.45.16,4.46-2.53,8.45-5.54,11.5-2.54,2.6-5.51,5.37-9.3,5.72-2.34.29-4-1.78-5-3.6A25.53,25.53,0,0,1,134,157c.66-3,2-6.23,4.86-7.82A10.59,10.59,0,0,1,150,148.81Z"/><path class="cls-4" d="M170.9,170a12.44,12.44,0,0,1,4.42,4.26c2.4,4,1.3,9.47-1.86,12.76-3.71,3.27-8.94,3.62-13.64,3.37-3.67-.37-7.85-1.18-10-4.56-.79-2.09,0-4.36,1.09-6.2a29.93,29.93,0,0,1,8.12-8.25,15.86,15.86,0,0,1,5.82-2.4A11.42,11.42,0,0,1,170.9,170Z"/><path class="cls-4" d="M118.41,151.91a9.53,9.53,0,0,1,5.75,8.21c0,4.17-.48,8.56-2.77,12.15-.87,1.34-2.15,2.78-3.9,2.73-2.73.06-4.79-2.09-6.49-3.95-2.38-2.86-4.41-6.25-4.82-10a9,9,0,0,1,12.23-9.13Z"/><path class="cls-4" d="M166.68,200.4a9.35,9.35,0,0,1,5.32,5.08c2.32,4.65-.86,10.78-5.8,12.06-4,1.26-8.11-1-11.44-3.11-2.42-1.82-5.13-4-5.68-7.17-.43-2.92,2.47-4.72,4.78-5.7C157.91,200.12,162.46,199.28,166.68,200.4Z"/><path class="cls-4" d="M139,182.58c3.83,2.43,4.38,7.29,5.29,11.34.89,5.74,1.11,11.71-.45,17.35-1.35,4.17-4,8.3-8.29,9.9-6,2.82-14.1.06-16.77-6.08-1.08-2.29-.83-4.87-1.31-7.3a1.55,1.55,0,0,0-1.51-1.22c-2.78-.39-5.77-.37-8.21-1.94A13,13,0,0,1,102.64,189c1.5-4.23,5.37-7.16,9.49-8.61s8.46-1.34,12.71-1.11A33.87,33.87,0,0,1,139,182.58Z"/><path class="cls-4" d="M208.81,276.07c-2.86,1.86-5.11,4.95-5.18,8.46-.16,4.45,2.53,8.44,5.54,11.5,2.54,2.59,5.51,5.37,9.3,5.71,2.34.29,4-1.77,5.05-3.59a25.47,25.47,0,0,0,1.2-13.94c-.66-3-2-6.23-4.86-7.81A10.61,10.61,0,0,0,208.81,276.07Z"/><path class="cls-4" d="M187.86,297.25a12.36,12.36,0,0,0-4.42,4.26c-2.4,4-1.3,9.47,1.86,12.76,3.71,3.26,8.94,3.61,13.64,3.37,3.67-.38,7.85-1.18,10-4.57.79-2.08-.05-4.35-1.09-6.19a29.9,29.9,0,0,0-8.11-8.25,16,16,0,0,0-5.83-2.4A11.32,11.32,0,0,0,187.86,297.25Z"/><path class="cls-4" d="M240.35,279.18a9.52,9.52,0,0,0-5.75,8.2c0,4.17.48,8.56,2.77,12.16.87,1.33,2.16,2.77,3.9,2.73,2.73.06,4.79-2.09,6.49-4,2.38-2.85,4.41-6.24,4.82-10a9,9,0,0,0-12.23-9.13Z"/><path class="cls-4" d="M192.08,327.67a9.29,9.29,0,0,0-5.31,5.07c-2.33,4.65.85,10.79,5.79,12.06,4.05,1.27,8.11-1,11.44-3.1,2.42-1.83,5.13-4,5.68-7.17.44-2.92-2.47-4.72-4.78-5.7C200.85,327.38,196.3,326.54,192.08,327.67Z"/><path class="cls-4" d="M219.81,309.84c-3.83,2.43-4.38,7.29-5.29,11.35-.89,5.73-1.11,11.71.45,17.35,1.35,4.16,4,8.29,8.29,9.9,6,2.81,14.1.06,16.77-6.08,1.08-2.29.83-4.88,1.31-7.3a1.54,1.54,0,0,1,1.51-1.22c2.78-.39,5.77-.37,8.21-1.95a13,13,0,0,0,5.06-15.58c-1.5-4.24-5.37-7.17-9.48-8.61s-8.47-1.35-12.72-1.12A34.06,34.06,0,0,0,219.81,309.84Z"/><path class="cls-4" d="M208.81,21.54C206,23.4,203.7,26.49,203.63,30c-.16,4.46,2.53,8.45,5.54,11.51,2.54,2.59,5.51,5.36,9.3,5.71,2.34.29,4-1.78,5.05-3.59a25.48,25.48,0,0,0,1.2-13.94c-.66-3-2-6.23-4.86-7.82A10.59,10.59,0,0,0,208.81,21.54Z"/><path class="cls-4" d="M187.86,42.72A12.41,12.41,0,0,0,183.44,47c-2.4,4-1.3,9.47,1.86,12.76,3.71,3.27,8.94,3.62,13.64,3.38,3.67-.38,7.85-1.18,10-4.57.79-2.09-.05-4.36-1.09-6.2a29.86,29.86,0,0,0-8.11-8.24,15.82,15.82,0,0,0-5.83-2.41A11.33,11.33,0,0,0,187.86,42.72Z"/><path class="cls-4" d="M240.35,24.65a9.52,9.52,0,0,0-5.75,8.2c0,4.17.48,8.56,2.77,12.15.87,1.34,2.16,2.78,3.9,2.73,2.73.06,4.79-2.08,6.49-3.95,2.38-2.86,4.41-6.25,4.82-10a9,9,0,0,0-12.23-9.13Z"/><path class="cls-4" d="M192.08,73.14a9.29,9.29,0,0,0-5.31,5.07c-2.33,4.65.85,10.79,5.79,12.06,4.05,1.27,8.11-1,11.44-3.1,2.42-1.83,5.13-4,5.68-7.17.44-2.92-2.47-4.72-4.78-5.71C200.85,72.85,196.3,72,192.08,73.14Z"/><path class="cls-4" d="M219.81,55.31c-3.83,2.43-4.38,7.29-5.29,11.35-.89,5.73-1.11,11.71.45,17.35,1.35,4.16,4,8.29,8.29,9.9,6,2.81,14.1.06,16.77-6.09,1.08-2.29.83-4.87,1.31-7.29a1.56,1.56,0,0,1,1.51-1.23c2.78-.38,5.77-.36,8.21-1.94a13,13,0,0,0,5.06-15.58c-1.5-4.24-5.37-7.17-9.48-8.61s-8.47-1.35-12.72-1.12A33.9,33.9,0,0,0,219.81,55.31Z"/><path class="cls-4" d="M331.94,403.34a10.72,10.72,0,0,1,5.17,8.45c.16,4.46-2.53,8.45-5.54,11.51-2.53,2.59-5.51,5.36-9.29,5.71-2.34.29-4-1.78-5.06-3.59A25.48,25.48,0,0,1,316,411.48c.66-3,2-6.23,4.86-7.82A10.59,10.59,0,0,1,331.94,403.34Z"/><path class="cls-4" d="M352.88,424.52a12.44,12.44,0,0,1,4.43,4.25c2.4,4,1.3,9.47-1.87,12.76-3.7,3.27-8.93,3.62-13.64,3.38-3.66-.38-7.85-1.19-10-4.57-.78-2.09.06-4.36,1.1-6.2a29.86,29.86,0,0,1,8.11-8.24,15.82,15.82,0,0,1,5.83-2.41A11.29,11.29,0,0,1,352.88,424.52Z"/><path class="cls-4" d="M300.39,406.45a9.54,9.54,0,0,1,5.76,8.2c0,4.17-.48,8.56-2.77,12.15-.88,1.34-2.16,2.78-3.91,2.73-2.72.06-4.78-2.08-6.48-3.95-2.38-2.86-4.42-6.25-4.83-10a9,9,0,0,1,4.07-8.25A8.85,8.85,0,0,1,300.39,406.45Z"/><path class="cls-4" d="M348.66,454.94A9.28,9.28,0,0,1,354,460c2.32,4.65-.85,10.79-5.79,12.06-4.06,1.27-8.12-1-11.45-3.1-2.42-1.83-5.12-4-5.68-7.17-.43-2.92,2.48-4.72,4.78-5.71C339.9,454.65,344.44,453.81,348.66,454.94Z"/><path class="cls-4" d="M320.93,437.11c3.84,2.43,4.39,7.29,5.29,11.35.9,5.73,1.11,11.71-.44,17.35-1.35,4.16-4,8.29-8.3,9.9-6,2.81-14.09.06-16.76-6.09-1.08-2.29-.83-4.87-1.31-7.29a1.56,1.56,0,0,0-1.51-1.23c-2.78-.38-5.78-.36-8.22-1.94a13,13,0,0,1-5.05-15.58c1.49-4.24,5.36-7.17,9.48-8.61s8.46-1.35,12.71-1.12A33.87,33.87,0,0,1,320.93,437.11Z"/><path class="cls-4" d="M331.94,148.81a10.7,10.7,0,0,1,5.17,8.45c.16,4.46-2.53,8.45-5.54,11.5-2.53,2.6-5.51,5.37-9.29,5.72-2.34.29-4-1.78-5.06-3.6A25.44,25.44,0,0,1,316,157c.66-3,2-6.23,4.86-7.82A10.59,10.59,0,0,1,331.94,148.81Z"/><path class="cls-4" d="M352.88,170a12.47,12.47,0,0,1,4.43,4.26c2.4,4,1.3,9.47-1.87,12.76-3.7,3.27-8.93,3.62-13.64,3.37-3.66-.37-7.85-1.18-10-4.56-.78-2.09.06-4.36,1.1-6.2a30,30,0,0,1,8.11-8.25,16,16,0,0,1,5.83-2.4A11.38,11.38,0,0,1,352.88,170Z"/><path class="cls-4" d="M300.39,151.91a9.56,9.56,0,0,1,5.76,8.21c0,4.17-.48,8.56-2.77,12.15-.88,1.34-2.16,2.78-3.91,2.73-2.72.06-4.78-2.09-6.48-3.95-2.38-2.86-4.42-6.25-4.83-10a9,9,0,0,1,4.07-8.25A8.88,8.88,0,0,1,300.39,151.91Z"/><path class="cls-4" d="M348.66,200.4a9.29,9.29,0,0,1,5.32,5.08c2.32,4.65-.85,10.78-5.79,12.06-4.06,1.26-8.12-1-11.45-3.11-2.42-1.82-5.12-4-5.68-7.17-.43-2.92,2.48-4.72,4.78-5.7C339.9,200.12,344.44,199.28,348.66,200.4Z"/><path class="cls-4" d="M320.93,182.58c3.84,2.43,4.39,7.29,5.29,11.34.9,5.74,1.11,11.71-.44,17.35-1.35,4.17-4,8.3-8.3,9.9-6,2.82-14.09.06-16.76-6.08-1.08-2.29-.83-4.87-1.31-7.3a1.55,1.55,0,0,0-1.51-1.22c-2.78-.39-5.78-.37-8.22-1.94A13,13,0,0,1,284.63,189c1.49-4.23,5.36-7.16,9.48-8.61s8.46-1.34,12.71-1.11A33.87,33.87,0,0,1,320.93,182.58Z"/><path class="cls-4" d="M390.79,276.07c-2.85,1.86-5.1,4.95-5.17,8.46-.16,4.45,2.53,8.44,5.54,11.5,2.53,2.59,5.51,5.37,9.3,5.71,2.33.29,4-1.77,5.05-3.59a25.47,25.47,0,0,0,1.19-13.94c-.66-3-2-6.23-4.86-7.81A10.61,10.61,0,0,0,390.79,276.07Z"/><path class="cls-4" d="M369.85,297.25a12.39,12.39,0,0,0-4.43,4.26c-2.4,4-1.3,9.47,1.87,12.76,3.71,3.26,8.93,3.61,13.64,3.37,3.67-.38,7.85-1.18,10-4.57.78-2.08-.06-4.35-1.1-6.19a29.9,29.9,0,0,0-8.11-8.25,16,16,0,0,0-5.82-2.4A11.31,11.31,0,0,0,369.85,297.25Z"/><path class="cls-4" d="M422.34,279.18a9.54,9.54,0,0,0-5.76,8.2c0,4.17.48,8.56,2.77,12.16.88,1.33,2.16,2.77,3.91,2.73,2.72.06,4.78-2.09,6.48-4,2.38-2.85,4.42-6.24,4.83-10a9,9,0,0,0-4.07-8.25A8.85,8.85,0,0,0,422.34,279.18Z"/><path class="cls-4" d="M374.07,327.67a9.34,9.34,0,0,0-5.32,5.07c-2.32,4.65.86,10.79,5.79,12.06,4.06,1.27,8.12-1,11.45-3.1,2.42-1.83,5.13-4,5.68-7.17.43-2.92-2.47-4.72-4.78-5.7C382.84,327.38,378.29,326.54,374.07,327.67Z"/><path class="cls-4" d="M401.8,309.84c-3.84,2.43-4.39,7.29-5.29,11.35-.89,5.73-1.11,11.71.44,17.35,1.36,4.16,4,8.29,8.3,9.9,6,2.81,14.1.06,16.76-6.08,1.08-2.29.83-4.88,1.31-7.3a1.54,1.54,0,0,1,1.51-1.22c2.78-.39,5.78-.37,8.22-1.95a13,13,0,0,0,5.06-15.58c-1.5-4.24-5.37-7.17-9.49-8.61s-8.46-1.35-12.71-1.12A34,34,0,0,0,401.8,309.84Z"/><path class="cls-4" d="M390.79,21.54c-2.85,1.86-5.1,4.95-5.17,8.45-.16,4.46,2.53,8.45,5.54,11.51,2.53,2.59,5.51,5.36,9.3,5.71,2.33.29,4-1.78,5.05-3.59a25.48,25.48,0,0,0,1.19-13.94c-.66-3-2-6.23-4.86-7.82A10.59,10.59,0,0,0,390.79,21.54Z"/><path class="cls-4" d="M369.85,42.72A12.44,12.44,0,0,0,365.42,47c-2.4,4-1.3,9.47,1.87,12.76,3.71,3.27,8.93,3.62,13.64,3.38,3.67-.38,7.85-1.18,10-4.57.78-2.09-.06-4.36-1.1-6.2a29.86,29.86,0,0,0-8.11-8.24,15.85,15.85,0,0,0-5.82-2.41A11.31,11.31,0,0,0,369.85,42.72Z"/><path class="cls-4" d="M422.34,24.65a9.54,9.54,0,0,0-5.76,8.2c0,4.17.48,8.56,2.77,12.15.88,1.34,2.16,2.78,3.91,2.73,2.72.06,4.78-2.08,6.48-3.95,2.38-2.86,4.42-6.25,4.83-10a9,9,0,0,0-4.07-8.25A8.85,8.85,0,0,0,422.34,24.65Z"/><path class="cls-4" d="M374.07,73.14a9.34,9.34,0,0,0-5.32,5.07c-2.32,4.65.86,10.79,5.79,12.06,4.06,1.27,8.12-1,11.45-3.1,2.42-1.83,5.13-4,5.68-7.17.43-2.92-2.47-4.72-4.78-5.71C382.84,72.85,378.29,72,374.07,73.14Z"/><path class="cls-4" d="M401.8,55.31c-3.84,2.43-4.39,7.29-5.29,11.35-.89,5.73-1.11,11.71.44,17.35,1.36,4.16,4,8.29,8.3,9.9,6,2.81,14.1.06,16.76-6.09,1.08-2.29.83-4.87,1.31-7.29a1.56,1.56,0,0,1,1.51-1.23c2.78-.38,5.78-.36,8.22-1.94a13,13,0,0,0,5.06-15.58c-1.5-4.24-5.37-7.17-9.49-8.61s-8.46-1.35-12.71-1.12A33.87,33.87,0,0,0,401.8,55.31Z"/><path class="cls-4" d="M508.35,403.34c2.86,1.86,5.11,5,5.18,8.45.16,4.46-2.53,8.45-5.54,11.51-2.53,2.59-5.51,5.36-9.3,5.71-2.33.29-4-1.78-5.05-3.59a25.48,25.48,0,0,1-1.19-13.94c.65-3,2-6.23,4.86-7.82A10.57,10.57,0,0,1,508.35,403.34Z"/><path class="cls-4" d="M529.3,424.52a12.52,12.52,0,0,1,4.43,4.25c2.39,4,1.29,9.47-1.87,12.76-3.71,3.27-8.93,3.62-13.64,3.38-3.67-.38-7.85-1.19-10-4.57-.79-2.09.06-4.36,1.09-6.2a29.9,29.9,0,0,1,8.12-8.24,15.71,15.71,0,0,1,5.82-2.41A11.33,11.33,0,0,1,529.3,424.52Z"/><path class="cls-4" d="M476.81,406.45a9.52,9.52,0,0,1,5.75,8.2c0,4.17-.47,8.56-2.77,12.15-.87,1.34-2.15,2.78-3.9,2.73-2.72.06-4.79-2.08-6.48-3.95-2.39-2.86-4.42-6.25-4.83-10a9,9,0,0,1,12.23-9.13Z"/><path class="cls-4" d="M525.08,454.94A9.34,9.34,0,0,1,530.4,460c2.32,4.65-.86,10.79-5.79,12.06-4.06,1.27-8.12-1-11.45-3.1-2.42-1.83-5.13-4-5.68-7.17-.43-2.92,2.47-4.72,4.78-5.71C516.31,454.65,520.86,453.81,525.08,454.94Z"/><path class="cls-4" d="M497.35,437.11c3.83,2.43,4.39,7.29,5.29,11.35.89,5.73,1.11,11.71-.44,17.35-1.36,4.16-4,8.29-8.3,9.9-6,2.81-14.1.06-16.76-6.09-1.09-2.29-.83-4.87-1.31-7.29a1.58,1.58,0,0,0-1.51-1.23c-2.79-.38-5.78-.36-8.22-1.94A13.05,13.05,0,0,1,461,443.58c1.5-4.24,5.37-7.17,9.49-8.61s8.46-1.35,12.71-1.12A33.87,33.87,0,0,1,497.35,437.11Z"/><path class="cls-4" d="M508.35,148.81c2.86,1.86,5.11,4.94,5.18,8.45.16,4.46-2.53,8.45-5.54,11.5-2.53,2.6-5.51,5.37-9.3,5.72-2.33.29-4-1.78-5.05-3.6A25.44,25.44,0,0,1,492.45,157c.65-3,2-6.23,4.86-7.82A10.57,10.57,0,0,1,508.35,148.81Z"/><path class="cls-4" d="M529.3,170a12.55,12.55,0,0,1,4.43,4.26c2.39,4,1.29,9.47-1.87,12.76-3.71,3.27-8.93,3.62-13.64,3.37-3.67-.37-7.85-1.18-10-4.56-.79-2.09.06-4.36,1.09-6.2a30.07,30.07,0,0,1,8.12-8.25,15.86,15.86,0,0,1,5.82-2.4A11.42,11.42,0,0,1,529.3,170Z"/><path class="cls-4" d="M476.81,151.91a9.53,9.53,0,0,1,5.75,8.21c0,4.17-.47,8.56-2.77,12.15-.87,1.34-2.15,2.78-3.9,2.73-2.72.06-4.79-2.09-6.48-3.95-2.39-2.86-4.42-6.25-4.83-10a9,9,0,0,1,12.23-9.13Z"/><path class="cls-4" d="M525.08,200.4a9.35,9.35,0,0,1,5.32,5.08c2.32,4.65-.86,10.78-5.79,12.06-4.06,1.26-8.12-1-11.45-3.11-2.42-1.82-5.13-4-5.68-7.17-.43-2.92,2.47-4.72,4.78-5.7C516.31,200.12,520.86,199.28,525.08,200.4Z"/><path class="cls-4" d="M497.35,182.58c3.83,2.43,4.39,7.29,5.29,11.34.89,5.74,1.11,11.71-.44,17.35-1.36,4.17-4,8.3-8.3,9.9-6,2.82-14.1.06-16.76-6.08-1.09-2.29-.83-4.87-1.31-7.3a1.57,1.57,0,0,0-1.51-1.22c-2.79-.39-5.78-.37-8.22-1.94A13.06,13.06,0,0,1,461,189c1.5-4.23,5.37-7.16,9.49-8.61s8.46-1.34,12.71-1.11A33.87,33.87,0,0,1,497.35,182.58Z"/><path class="cls-4" d="M567.21,276.07c-2.86,1.86-5.11,4.95-5.18,8.46-.15,4.45,2.53,8.44,5.55,11.5,2.53,2.59,5.5,5.37,9.29,5.71,2.34.29,4-1.77,5-3.59a25.38,25.38,0,0,0,1.2-13.94c-.66-3-2-6.23-4.86-7.81A10.61,10.61,0,0,0,567.21,276.07Z"/><path class="cls-4" d="M546.27,297.25a12.39,12.39,0,0,0-4.43,4.26c-2.4,4-1.3,9.47,1.86,12.76,3.71,3.26,8.94,3.61,13.65,3.37,3.66-.38,7.85-1.18,9.95-4.57.79-2.08,0-4.35-1.09-6.19a29.9,29.9,0,0,0-8.11-8.25,16,16,0,0,0-5.83-2.4A11.27,11.27,0,0,0,546.27,297.25Z"/><path class="cls-4" d="M598.75,279.18a9.55,9.55,0,0,0-5.75,8.2c0,4.17.48,8.56,2.77,12.16.87,1.33,2.16,2.77,3.9,2.73,2.73.06,4.79-2.09,6.49-4,2.38-2.85,4.41-6.24,4.82-10a9,9,0,0,0-12.23-9.13Z"/><path class="cls-4" d="M550.48,327.67a9.29,9.29,0,0,0-5.31,5.07c-2.32,4.65.85,10.79,5.79,12.06,4,1.27,8.12-1,11.44-3.1,2.43-1.83,5.13-4,5.68-7.17.44-2.92-2.47-4.72-4.78-5.7C559.25,327.38,554.71,326.54,550.48,327.67Z"/><path class="cls-4" d="M578.22,309.84c-3.84,2.43-4.39,7.29-5.3,11.35-.89,5.73-1.1,11.71.45,17.35,1.35,4.16,4,8.29,8.29,9.9,6,2.81,14.1.06,16.77-6.08,1.08-2.29.83-4.88,1.31-7.3a1.54,1.54,0,0,1,1.51-1.22c2.78-.39,5.77-.37,8.21-1.95a13,13,0,0,0,5.06-15.58c-1.5-4.24-5.36-7.17-9.48-8.61s-8.46-1.35-12.71-1.12A34,34,0,0,0,578.22,309.84Z"/><path class="cls-4" d="M567.21,21.54C564.35,23.4,562.1,26.49,562,30c-.15,4.46,2.53,8.45,5.55,11.51,2.53,2.59,5.5,5.36,9.29,5.71,2.34.29,4-1.78,5-3.59a25.39,25.39,0,0,0,1.2-13.94c-.66-3-2-6.23-4.86-7.82A10.59,10.59,0,0,0,567.21,21.54Z"/><path class="cls-4" d="M546.27,42.72A12.44,12.44,0,0,0,541.84,47c-2.4,4-1.3,9.47,1.86,12.76,3.71,3.27,8.94,3.62,13.65,3.38,3.66-.38,7.85-1.18,9.95-4.57.79-2.09,0-4.36-1.09-6.2a29.86,29.86,0,0,0-8.11-8.24,15.82,15.82,0,0,0-5.83-2.41A11.28,11.28,0,0,0,546.27,42.72Z"/><path class="cls-4" d="M598.75,24.65a9.55,9.55,0,0,0-5.75,8.2c0,4.17.48,8.56,2.77,12.15.87,1.34,2.16,2.78,3.9,2.73,2.73.06,4.79-2.08,6.49-3.95,2.38-2.86,4.41-6.25,4.82-10a9,9,0,0,0-12.23-9.13Z"/><path class="cls-4" d="M550.48,73.14a9.29,9.29,0,0,0-5.31,5.07C542.85,82.86,546,89,551,90.27c4,1.27,8.12-1,11.44-3.1,2.43-1.83,5.13-4,5.68-7.17.44-2.92-2.47-4.72-4.78-5.71C559.25,72.85,554.71,72,550.48,73.14Z"/><path class="cls-4" d="M578.22,55.31c-3.84,2.43-4.39,7.29-5.3,11.35-.89,5.73-1.1,11.71.45,17.35,1.35,4.16,4,8.29,8.29,9.9,6,2.81,14.1.06,16.77-6.09,1.08-2.29.83-4.87,1.31-7.29a1.56,1.56,0,0,1,1.51-1.23c2.78-.38,5.77-.36,8.21-1.94a13,13,0,0,0,5.06-15.58c-1.5-4.24-5.36-7.17-9.48-8.61s-8.46-1.35-12.71-1.12A33.87,33.87,0,0,0,578.22,55.31Z"/><path class="cls-4" d="M690.34,403.34c2.86,1.86,5.11,5,5.17,8.45.16,4.46-2.52,8.45-5.54,11.51-2.53,2.59-5.5,5.36-9.29,5.71-2.34.29-4-1.78-5-3.59a25.39,25.39,0,0,1-1.2-13.94c.66-3,2-6.23,4.86-7.82A10.59,10.59,0,0,1,690.34,403.34Z"/><path class="cls-4" d="M711.28,424.52a12.44,12.44,0,0,1,4.43,4.25c2.4,4,1.3,9.47-1.87,12.76-3.7,3.27-8.93,3.62-13.64,3.38-3.66-.38-7.85-1.19-10-4.57-.78-2.09.06-4.36,1.1-6.2a29.86,29.86,0,0,1,8.11-8.24,15.82,15.82,0,0,1,5.83-2.41A11.29,11.29,0,0,1,711.28,424.52Z"/><path class="cls-4" d="M658.8,406.45a9.55,9.55,0,0,1,5.75,8.2c0,4.17-.48,8.56-2.77,12.15-.88,1.34-2.16,2.78-3.9,2.73-2.73.06-4.79-2.08-6.49-3.95-2.38-2.86-4.41-6.25-4.82-10a9,9,0,0,1,12.23-9.13Z"/><path class="cls-4" d="M707.07,454.94a9.29,9.29,0,0,1,5.31,5.07c2.32,4.65-.85,10.79-5.79,12.06-4.06,1.27-8.12-1-11.44-3.1-2.43-1.83-5.13-4-5.69-7.17-.43-2.92,2.48-4.72,4.79-5.71C698.3,454.65,702.84,453.81,707.07,454.94Z"/><path class="cls-4" d="M679.33,437.11c3.84,2.43,4.39,7.29,5.3,11.35.89,5.73,1.1,11.71-.45,17.35-1.35,4.16-4,8.29-8.29,9.9-6,2.81-14.1.06-16.77-6.09-1.08-2.29-.83-4.87-1.31-7.29a1.56,1.56,0,0,0-1.51-1.23c-2.78-.38-5.77-.36-8.22-1.94A13,13,0,0,1,643,443.58c1.49-4.24,5.36-7.17,9.48-8.61s8.46-1.35,12.71-1.12A33.87,33.87,0,0,1,679.33,437.11Z"/><path class="cls-4" d="M690.34,148.81c2.86,1.86,5.11,4.94,5.17,8.45.16,4.46-2.52,8.45-5.54,11.5-2.53,2.6-5.5,5.37-9.29,5.72-2.34.29-4-1.78-5-3.6a25.35,25.35,0,0,1-1.2-13.93c.66-3,2-6.23,4.86-7.82A10.59,10.59,0,0,1,690.34,148.81Z"/><path class="cls-4" d="M711.28,170a12.47,12.47,0,0,1,4.43,4.26c2.4,4,1.3,9.47-1.87,12.76-3.7,3.27-8.93,3.62-13.64,3.37-3.66-.37-7.85-1.18-10-4.56-.78-2.09.06-4.36,1.1-6.2a30,30,0,0,1,8.11-8.25,16,16,0,0,1,5.83-2.4A11.38,11.38,0,0,1,711.28,170Z"/><path class="cls-4" d="M658.8,151.91a9.57,9.57,0,0,1,5.75,8.21c0,4.17-.48,8.56-2.77,12.15-.88,1.34-2.16,2.78-3.9,2.73-2.73.06-4.79-2.09-6.49-3.95-2.38-2.86-4.41-6.25-4.82-10a9,9,0,0,1,12.23-9.13Z"/><path class="cls-4" d="M707.07,200.4a9.31,9.31,0,0,1,5.31,5.08c2.32,4.65-.85,10.78-5.79,12.06-4.06,1.26-8.12-1-11.44-3.11-2.43-1.82-5.13-4-5.69-7.17-.43-2.92,2.48-4.72,4.79-5.7C698.3,200.12,702.84,199.28,707.07,200.4Z"/><path class="cls-4" d="M679.33,182.58c3.84,2.43,4.39,7.29,5.3,11.34.89,5.74,1.1,11.71-.45,17.35-1.35,4.17-4,8.3-8.29,9.9-6,2.82-14.1.06-16.77-6.08-1.08-2.29-.83-4.87-1.31-7.3a1.55,1.55,0,0,0-1.51-1.22c-2.78-.39-5.77-.37-8.22-1.94A13,13,0,0,1,643,189c1.49-4.23,5.36-7.16,9.48-8.61s8.46-1.34,12.71-1.11A33.87,33.87,0,0,1,679.33,182.58Z"/><path class="cls-4" d="M26.67,276.07c-2.86,1.86-5.11,4.95-5.18,8.46C21.34,289,24,293,27,296c2.53,2.59,5.5,5.37,9.29,5.71,2.34.29,4-1.77,5.05-3.59a25.38,25.38,0,0,0,1.2-13.94c-.66-3-2-6.23-4.86-7.81A10.61,10.61,0,0,0,26.67,276.07Z"/><path class="cls-4" d="M5.73,297.25a12.39,12.39,0,0,0-4.43,4.26c-2.4,4-1.3,9.47,1.86,12.76,3.71,3.26,8.94,3.61,13.65,3.37,3.66-.38,7.85-1.18,10-4.57.79-2.08-.05-4.35-1.09-6.19a29.9,29.9,0,0,0-8.11-8.25,16,16,0,0,0-5.83-2.4A11.27,11.27,0,0,0,5.73,297.25Z"/><path class="cls-4" d="M58.21,279.18a9.55,9.55,0,0,0-5.75,8.2c0,4.17.48,8.56,2.77,12.16.87,1.33,2.16,2.77,3.9,2.73,2.73.06,4.79-2.09,6.49-4,2.38-2.85,4.41-6.24,4.82-10a9,9,0,0,0-12.23-9.13Z"/><path class="cls-4" d="M9.94,327.67a9.29,9.29,0,0,0-5.31,5.07c-2.32,4.65.85,10.79,5.79,12.06,4.06,1.27,8.12-1,11.44-3.1,2.43-1.83,5.13-4,5.68-7.17.44-2.92-2.47-4.72-4.78-5.7C18.71,327.38,14.17,326.54,9.94,327.67Z"/><path class="cls-4" d="M37.68,309.84c-3.84,2.43-4.39,7.29-5.3,11.35-.89,5.73-1.1,11.71.45,17.35,1.35,4.16,4,8.29,8.29,9.9,6,2.81,14.1.06,16.77-6.08,1.08-2.29.83-4.88,1.31-7.3a1.54,1.54,0,0,1,1.51-1.22c2.78-.39,5.77-.37,8.22-1.95a13,13,0,0,0,5-15.58c-1.49-4.24-5.36-7.17-9.48-8.61s-8.46-1.35-12.71-1.12A34,34,0,0,0,37.68,309.84Z"/><path class="cls-4" d="M26.67,21.54c-2.86,1.86-5.11,4.95-5.18,8.45C21.34,34.45,24,38.44,27,41.5c2.53,2.59,5.5,5.36,9.29,5.71,2.34.29,4-1.78,5.05-3.59a25.39,25.39,0,0,0,1.2-13.94c-.66-3-2-6.23-4.86-7.82A10.59,10.59,0,0,0,26.67,21.54Z"/><path class="cls-4" d="M5.73,42.72A12.44,12.44,0,0,0,1.3,47C-1.1,51,0,56.44,3.16,59.73,6.87,63,12.1,63.35,16.81,63.11c3.66-.38,7.85-1.18,10-4.57.79-2.09-.05-4.36-1.09-6.2a29.86,29.86,0,0,0-8.11-8.24,15.82,15.82,0,0,0-5.83-2.41A11.28,11.28,0,0,0,5.73,42.72Z"/><path class="cls-4" d="M58.21,24.65a9.55,9.55,0,0,0-5.75,8.2c0,4.17.48,8.56,2.77,12.15.87,1.34,2.16,2.78,3.9,2.73,2.73.06,4.79-2.08,6.49-3.95,2.38-2.86,4.41-6.25,4.82-10a9,9,0,0,0-12.23-9.13Z"/><path class="cls-4" d="M9.94,73.14a9.29,9.29,0,0,0-5.31,5.07C2.31,82.86,5.48,89,10.42,90.27c4.06,1.27,8.12-1,11.44-3.1,2.43-1.83,5.13-4,5.68-7.17.44-2.92-2.47-4.72-4.78-5.71C18.71,72.85,14.17,72,9.94,73.14Z"/><path class="cls-4" d="M37.68,55.31c-3.84,2.43-4.39,7.29-5.3,11.35-.89,5.73-1.1,11.71.45,17.35,1.35,4.16,4,8.29,8.29,9.9,6,2.81,14.1.06,16.77-6.09,1.08-2.29.83-4.87,1.31-7.29a1.56,1.56,0,0,1,1.51-1.23c2.78-.38,5.77-.36,8.22-1.94a13,13,0,0,0,5-15.58c-1.49-4.24-5.36-7.17-9.48-8.61S56,51.82,51.79,52.05A33.87,33.87,0,0,0,37.68,55.31Z"/><path class="cls-4" d="M749.81,276.07c-2.86,1.86-5.11,4.95-5.18,8.46-.16,4.45,2.53,8.44,5.54,11.5,2.54,2.59,5.51,5.37,9.3,5.71,2.34.29,4-1.77,5-3.59a25.47,25.47,0,0,0,1.2-13.94c-.66-3-2-6.23-4.86-7.81A10.61,10.61,0,0,0,749.81,276.07Z"/><path class="cls-4" d="M728.86,297.25a12.36,12.36,0,0,0-4.42,4.26c-2.4,4-1.3,9.47,1.86,12.76,3.71,3.26,8.94,3.61,13.64,3.37,3.67-.38,7.85-1.18,10-4.57.79-2.08,0-4.35-1.09-6.19a29.9,29.9,0,0,0-8.11-8.25,16,16,0,0,0-5.83-2.4A11.32,11.32,0,0,0,728.86,297.25Z"/><path class="cls-4" d="M781.35,279.18a9.52,9.52,0,0,0-5.75,8.2c0,4.17.48,8.56,2.77,12.16.87,1.33,2.16,2.77,3.9,2.73,2.73.06,4.79-2.09,6.49-4,2.38-2.85,4.41-6.24,4.82-10a9,9,0,0,0-12.23-9.13Z"/><path class="cls-4" d="M733.08,327.67a9.29,9.29,0,0,0-5.31,5.07c-2.33,4.65.85,10.79,5.79,12.06,4.05,1.27,8.11-1,11.44-3.1,2.42-1.83,5.13-4,5.68-7.17.44-2.92-2.47-4.72-4.78-5.7C741.85,327.38,737.3,326.54,733.08,327.67Z"/><path class="cls-4" d="M760.81,309.84c-3.83,2.43-4.38,7.29-5.29,11.35-.89,5.73-1.11,11.71.45,17.35,1.35,4.16,4,8.29,8.29,9.9,6,2.81,14.1.06,16.77-6.08,1.08-2.29.83-4.88,1.31-7.3a1.54,1.54,0,0,1,1.51-1.22c2.78-.39,5.77-.37,8.21-1.95a13,13,0,0,0,5.06-15.58c-1.5-4.24-5.37-7.17-9.48-8.61s-8.47-1.35-12.72-1.12A34.06,34.06,0,0,0,760.81,309.84Z"/><path class="cls-4" d="M749.81,21.54C747,23.4,744.7,26.49,744.63,30c-.16,4.46,2.53,8.45,5.54,11.51,2.54,2.59,5.51,5.36,9.3,5.71,2.34.29,4-1.78,5-3.59a25.48,25.48,0,0,0,1.2-13.94c-.66-3-2-6.23-4.86-7.82A10.59,10.59,0,0,0,749.81,21.54Z"/><path class="cls-4" d="M728.86,42.72A12.41,12.41,0,0,0,724.44,47c-2.4,4-1.3,9.47,1.86,12.76,3.71,3.27,8.94,3.62,13.64,3.38,3.67-.38,7.85-1.18,10-4.57.79-2.09,0-4.36-1.09-6.2a29.86,29.86,0,0,0-8.11-8.24,15.82,15.82,0,0,0-5.83-2.41A11.33,11.33,0,0,0,728.86,42.72Z"/><path class="cls-4" d="M781.35,24.65a9.52,9.52,0,0,0-5.75,8.2c0,4.17.48,8.56,2.77,12.15.87,1.34,2.16,2.78,3.9,2.73,2.73.06,4.79-2.08,6.49-3.95,2.38-2.86,4.41-6.25,4.82-10a9,9,0,0,0-12.23-9.13Z"/><path class="cls-4" d="M733.08,73.14a9.29,9.29,0,0,0-5.31,5.07c-2.33,4.65.85,10.79,5.79,12.06,4.05,1.27,8.11-1,11.44-3.1,2.42-1.83,5.13-4,5.68-7.17.44-2.92-2.47-4.72-4.78-5.71C741.85,72.85,737.3,72,733.08,73.14Z"/><path class="cls-4" d="M760.81,55.31c-3.83,2.43-4.38,7.29-5.29,11.35-.89,5.73-1.11,11.71.45,17.35,1.35,4.16,4,8.29,8.29,9.9,6,2.81,14.1.06,16.77-6.09,1.08-2.29.83-4.87,1.31-7.29a1.56,1.56,0,0,1,1.51-1.23c2.78-.38,5.77-.36,8.21-1.94a13,13,0,0,0,5.06-15.58c-1.5-4.24-5.37-7.17-9.48-8.61s-8.47-1.35-12.72-1.12A33.9,33.9,0,0,0,760.81,55.31Z"/><path class="cls-4" d="M872.94,403.34a10.72,10.72,0,0,1,5.17,8.45c.16,4.46-2.53,8.45-5.54,11.51-2.53,2.59-5.51,5.36-9.29,5.71-2.34.29-4-1.78-5.06-3.59A25.48,25.48,0,0,1,857,411.48c.66-3,2-6.23,4.86-7.82A10.59,10.59,0,0,1,872.94,403.34Z"/><path class="cls-4" d="M893.88,424.52a12.44,12.44,0,0,1,4.43,4.25c2.4,4,1.3,9.47-1.87,12.76-3.7,3.27-8.93,3.62-13.64,3.38-3.66-.38-7.85-1.19-10-4.57-.78-2.09.06-4.36,1.1-6.2a29.86,29.86,0,0,1,8.11-8.24,15.82,15.82,0,0,1,5.83-2.41A11.29,11.29,0,0,1,893.88,424.52Z"/><path class="cls-4" d="M841.39,406.45a9.54,9.54,0,0,1,5.76,8.2c0,4.17-.48,8.56-2.77,12.15-.88,1.34-2.16,2.78-3.91,2.73-2.72.06-4.78-2.08-6.48-3.95-2.38-2.86-4.42-6.25-4.83-10a9,9,0,0,1,4.07-8.25A8.85,8.85,0,0,1,841.39,406.45Z"/><path class="cls-4" d="M889.66,454.94A9.28,9.28,0,0,1,895,460c2.32,4.65-.85,10.79-5.79,12.06-4.06,1.27-8.12-1-11.45-3.1-2.42-1.83-5.12-4-5.68-7.17-.43-2.92,2.48-4.72,4.78-5.71C880.9,454.65,885.44,453.81,889.66,454.94Z"/><path class="cls-4" d="M861.93,437.11c3.84,2.43,4.39,7.29,5.29,11.35.9,5.73,1.11,11.71-.44,17.35-1.35,4.16-4,8.29-8.3,9.9-6,2.81-14.09.06-16.76-6.09-1.08-2.29-.83-4.87-1.31-7.29a1.56,1.56,0,0,0-1.51-1.23c-2.78-.38-5.78-.36-8.22-1.94a13,13,0,0,1-5-15.58c1.49-4.24,5.36-7.17,9.48-8.61s8.46-1.35,12.71-1.12A33.87,33.87,0,0,1,861.93,437.11Z"/><path class="cls-4" d="M872.94,148.81a10.7,10.7,0,0,1,5.17,8.45c.16,4.46-2.53,8.45-5.54,11.5-2.53,2.6-5.51,5.37-9.29,5.72-2.34.29-4-1.78-5.06-3.6A25.44,25.44,0,0,1,857,157c.66-3,2-6.23,4.86-7.82A10.59,10.59,0,0,1,872.94,148.81Z"/><path class="cls-4" d="M893.88,170a12.47,12.47,0,0,1,4.43,4.26c2.4,4,1.3,9.47-1.87,12.76-3.7,3.27-8.93,3.62-13.64,3.37-3.66-.37-7.85-1.18-10-4.56-.78-2.09.06-4.36,1.1-6.2a30,30,0,0,1,8.11-8.25,16,16,0,0,1,5.83-2.4A11.38,11.38,0,0,1,893.88,170Z"/><path class="cls-4" d="M841.39,151.91a9.56,9.56,0,0,1,5.76,8.21c0,4.17-.48,8.56-2.77,12.15-.88,1.34-2.16,2.78-3.91,2.73-2.72.06-4.78-2.09-6.48-3.95-2.38-2.86-4.42-6.25-4.83-10a9,9,0,0,1,4.07-8.25A8.88,8.88,0,0,1,841.39,151.91Z"/><path class="cls-4" d="M889.66,200.4a9.29,9.29,0,0,1,5.32,5.08c2.32,4.65-.85,10.78-5.79,12.06-4.06,1.26-8.12-1-11.45-3.11-2.42-1.82-5.12-4-5.68-7.17-.43-2.92,2.48-4.72,4.78-5.7C880.9,200.12,885.44,199.28,889.66,200.4Z"/><path class="cls-4" d="M861.93,182.58c3.84,2.43,4.39,7.29,5.29,11.34.9,5.74,1.11,11.71-.44,17.35-1.35,4.17-4,8.3-8.3,9.9-6,2.82-14.09.06-16.76-6.08-1.08-2.29-.83-4.87-1.31-7.3a1.55,1.55,0,0,0-1.51-1.22c-2.78-.39-5.78-.37-8.22-1.94a13,13,0,0,1-5-15.59c1.49-4.23,5.36-7.16,9.48-8.61s8.46-1.34,12.71-1.11A33.87,33.87,0,0,1,861.93,182.58Z"/><path class="cls-4" d="M931.79,276.07c-2.85,1.86-5.1,4.95-5.17,8.46-.16,4.45,2.53,8.44,5.54,11.5,2.53,2.59,5.51,5.37,9.3,5.71,2.33.29,4-1.77,5-3.59a25.47,25.47,0,0,0,1.19-13.94c-.66-3-2-6.23-4.86-7.81A10.61,10.61,0,0,0,931.79,276.07Z"/><path class="cls-4" d="M910.85,297.25a12.39,12.39,0,0,0-4.43,4.26c-2.4,4-1.3,9.47,1.87,12.76,3.71,3.26,8.93,3.61,13.64,3.37,3.67-.38,7.85-1.18,10-4.57.78-2.08-.06-4.35-1.1-6.19a29.9,29.9,0,0,0-8.11-8.25,16,16,0,0,0-5.82-2.4A11.31,11.31,0,0,0,910.85,297.25Z"/><path class="cls-4" d="M963.34,279.18a9.54,9.54,0,0,0-5.76,8.2c0,4.17.48,8.56,2.77,12.16.88,1.33,2.16,2.77,3.91,2.73,2.72.06,4.78-2.09,6.48-4,2.38-2.85,4.42-6.24,4.83-10a9,9,0,0,0-4.07-8.25A8.85,8.85,0,0,0,963.34,279.18Z"/><path class="cls-4" d="M915.07,327.67a9.34,9.34,0,0,0-5.32,5.07c-2.32,4.65.86,10.79,5.79,12.06,4.06,1.27,8.12-1,11.45-3.1,2.42-1.83,5.13-4,5.68-7.17.43-2.92-2.47-4.72-4.78-5.7C923.84,327.38,919.29,326.54,915.07,327.67Z"/><path class="cls-4" d="M942.8,309.84c-3.84,2.43-4.39,7.29-5.29,11.35-.89,5.73-1.11,11.71.44,17.35,1.36,4.16,4,8.29,8.3,9.9,6,2.81,14.1.06,16.76-6.08,1.08-2.29.83-4.88,1.31-7.3a1.54,1.54,0,0,1,1.51-1.22c2.78-.39,5.78-.37,8.22-1.95a13,13,0,0,0,5.06-15.58c-1.5-4.24-5.37-7.17-9.49-8.61s-8.46-1.35-12.71-1.12A34,34,0,0,0,942.8,309.84Z"/><path class="cls-4" d="M931.79,21.54c-2.85,1.86-5.1,4.95-5.17,8.45-.16,4.46,2.53,8.45,5.54,11.51,2.53,2.59,5.51,5.36,9.3,5.71,2.33.29,4-1.78,5-3.59a25.48,25.48,0,0,0,1.19-13.94c-.66-3-2-6.23-4.86-7.82A10.59,10.59,0,0,0,931.79,21.54Z"/><path class="cls-4" d="M910.85,42.72A12.44,12.44,0,0,0,906.42,47c-2.4,4-1.3,9.47,1.87,12.76,3.71,3.27,8.93,3.62,13.64,3.38,3.67-.38,7.85-1.18,10-4.57.78-2.09-.06-4.36-1.1-6.2a29.86,29.86,0,0,0-8.11-8.24,15.85,15.85,0,0,0-5.82-2.41A11.31,11.31,0,0,0,910.85,42.72Z"/><path class="cls-4" d="M963.34,24.65a9.54,9.54,0,0,0-5.76,8.2c0,4.17.48,8.56,2.77,12.15.88,1.34,2.16,2.78,3.91,2.73,2.72.06,4.78-2.08,6.48-3.95,2.38-2.86,4.42-6.25,4.83-10a9,9,0,0,0-4.07-8.25A8.85,8.85,0,0,0,963.34,24.65Z"/><path class="cls-4" d="M915.07,73.14a9.34,9.34,0,0,0-5.32,5.07c-2.32,4.65.86,10.79,5.79,12.06,4.06,1.27,8.12-1,11.45-3.1,2.42-1.83,5.13-4,5.68-7.17.43-2.92-2.47-4.72-4.78-5.71C923.84,72.85,919.29,72,915.07,73.14Z"/><path class="cls-4" d="M942.8,55.31c-3.84,2.43-4.39,7.29-5.29,11.35-.89,5.73-1.11,11.71.44,17.35,1.36,4.16,4,8.29,8.3,9.9,6,2.81,14.1.06,16.76-6.09,1.08-2.29.83-4.87,1.31-7.29a1.56,1.56,0,0,1,1.51-1.23c2.78-.38,5.78-.36,8.22-1.94a13,13,0,0,0,5.06-15.58c-1.5-4.24-5.37-7.17-9.49-8.61s-8.46-1.35-12.71-1.12A33.87,33.87,0,0,0,942.8,55.31Z"/><path class="cls-4" d="M1049.35,403.34c2.86,1.86,5.11,5,5.18,8.45.16,4.46-2.53,8.45-5.54,11.51-2.53,2.59-5.51,5.36-9.3,5.71-2.33.29-4-1.78-5-3.59a25.48,25.48,0,0,1-1.19-13.94c.65-3,2-6.23,4.86-7.82A10.57,10.57,0,0,1,1049.35,403.34Z"/><path class="cls-4" d="M1070.3,424.52a12.52,12.52,0,0,1,4.43,4.25c2.39,4,1.29,9.47-1.87,12.76-3.71,3.27-8.93,3.62-13.64,3.38-3.67-.38-7.85-1.19-10-4.57-.79-2.09.06-4.36,1.09-6.2a29.9,29.9,0,0,1,8.12-8.24,15.71,15.71,0,0,1,5.82-2.41A11.33,11.33,0,0,1,1070.3,424.52Z"/><path class="cls-4" d="M1017.81,406.45a9.52,9.52,0,0,1,5.75,8.2c0,4.17-.47,8.56-2.77,12.15-.87,1.34-2.15,2.78-3.9,2.73-2.72.06-4.79-2.08-6.48-3.95-2.39-2.86-4.42-6.25-4.83-10a9,9,0,0,1,12.23-9.13Z"/><path class="cls-4" d="M1066.08,454.94a9.34,9.34,0,0,1,5.32,5.07c2.32,4.65-.86,10.79-5.79,12.06-4.06,1.27-8.12-1-11.45-3.1-2.42-1.83-5.13-4-5.68-7.17-.43-2.92,2.47-4.72,4.78-5.71C1057.31,454.65,1061.86,453.81,1066.08,454.94Z"/><path class="cls-4" d="M1038.35,437.11c3.83,2.43,4.39,7.29,5.29,11.35.89,5.73,1.11,11.71-.44,17.35-1.36,4.16-4,8.29-8.3,9.9-6,2.81-14.1.06-16.76-6.09-1.09-2.29-.83-4.87-1.31-7.29a1.58,1.58,0,0,0-1.51-1.23c-2.79-.38-5.78-.36-8.22-1.94a13.05,13.05,0,0,1-5.06-15.58c1.5-4.24,5.37-7.17,9.49-8.61s8.46-1.35,12.71-1.12A33.87,33.87,0,0,1,1038.35,437.11Z"/><path class="cls-4" d="M1049.35,148.81c2.86,1.86,5.11,4.94,5.18,8.45.16,4.46-2.53,8.45-5.54,11.5-2.53,2.6-5.51,5.37-9.3,5.72-2.33.29-4-1.78-5-3.6a25.44,25.44,0,0,1-1.19-13.93c.65-3,2-6.23,4.86-7.82A10.57,10.57,0,0,1,1049.35,148.81Z"/><path class="cls-4" d="M1070.3,170a12.55,12.55,0,0,1,4.43,4.26c2.39,4,1.29,9.47-1.87,12.76-3.71,3.27-8.93,3.62-13.64,3.37-3.67-.37-7.85-1.18-10-4.56-.79-2.09.06-4.36,1.09-6.2a30.07,30.07,0,0,1,8.12-8.25,15.86,15.86,0,0,1,5.82-2.4A11.42,11.42,0,0,1,1070.3,170Z"/><path class="cls-4" d="M1017.81,151.91a9.53,9.53,0,0,1,5.75,8.21c0,4.17-.47,8.56-2.77,12.15-.87,1.34-2.15,2.78-3.9,2.73-2.72.06-4.79-2.09-6.48-3.95-2.39-2.86-4.42-6.25-4.83-10a9,9,0,0,1,12.23-9.13Z"/><path class="cls-4" d="M1066.08,200.4a9.35,9.35,0,0,1,5.32,5.08c2.32,4.65-.86,10.78-5.79,12.06-4.06,1.26-8.12-1-11.45-3.11-2.42-1.82-5.13-4-5.68-7.17-.43-2.92,2.47-4.72,4.78-5.7C1057.31,200.12,1061.86,199.28,1066.08,200.4Z"/><path class="cls-4" d="M1038.35,182.58c3.83,2.43,4.39,7.29,5.29,11.34.89,5.74,1.11,11.71-.44,17.35-1.36,4.17-4,8.3-8.3,9.9-6,2.82-14.1.06-16.76-6.08-1.09-2.29-.83-4.87-1.31-7.3a1.57,1.57,0,0,0-1.51-1.22c-2.79-.39-5.78-.37-8.22-1.94A13.06,13.06,0,0,1,1002,189c1.5-4.23,5.37-7.16,9.49-8.61s8.46-1.34,12.71-1.11A33.87,33.87,0,0,1,1038.35,182.58Z"/><path class="cls-4" d="M1108.21,276.07c-2.86,1.86-5.11,4.95-5.18,8.46-.15,4.45,2.53,8.44,5.55,11.5,2.53,2.59,5.5,5.37,9.29,5.71,2.34.29,4-1.77,5.05-3.59a25.38,25.38,0,0,0,1.2-13.94c-.66-3-2-6.23-4.86-7.81A10.61,10.61,0,0,0,1108.21,276.07Z"/><path class="cls-4" d="M1087.27,297.25a12.39,12.39,0,0,0-4.43,4.26c-2.4,4-1.3,9.47,1.86,12.76,3.71,3.26,8.94,3.61,13.65,3.37,3.66-.38,7.85-1.18,10-4.57.79-2.08,0-4.35-1.09-6.19a29.9,29.9,0,0,0-8.11-8.25,16,16,0,0,0-5.83-2.4A11.27,11.27,0,0,0,1087.27,297.25Z"/><path class="cls-4" d="M1139.75,279.18a9.55,9.55,0,0,0-5.75,8.2c0,4.17.48,8.56,2.77,12.16.87,1.33,2.16,2.77,3.9,2.73,2.73.06,4.79-2.09,6.49-4,2.38-2.85,4.41-6.24,4.82-10a9,9,0,0,0-12.23-9.13Z"/><path class="cls-4" d="M1091.48,327.67a9.29,9.29,0,0,0-5.31,5.07c-2.32,4.65.85,10.79,5.79,12.06,4,1.27,8.12-1,11.44-3.1,2.43-1.83,5.13-4,5.68-7.17.44-2.92-2.47-4.72-4.78-5.7C1100.25,327.38,1095.71,326.54,1091.48,327.67Z"/><path class="cls-4" d="M1119.22,309.84c-3.84,2.43-4.39,7.29-5.3,11.35-.89,5.73-1.1,11.71.45,17.35,1.35,4.16,4,8.29,8.29,9.9,6,2.81,14.1.06,16.77-6.08,1.08-2.29.83-4.88,1.31-7.3a1.54,1.54,0,0,1,1.51-1.22c2.78-.39,5.77-.37,8.21-1.95a13,13,0,0,0,5.06-15.58c-1.5-4.24-5.36-7.17-9.48-8.61s-8.46-1.35-12.71-1.12A34,34,0,0,0,1119.22,309.84Z"/><path class="cls-4" d="M1108.21,21.54c-2.86,1.86-5.11,4.95-5.18,8.45-.15,4.46,2.53,8.45,5.55,11.51,2.53,2.59,5.5,5.36,9.29,5.71,2.34.29,4-1.78,5.05-3.59a25.39,25.39,0,0,0,1.2-13.94c-.66-3-2-6.23-4.86-7.82A10.59,10.59,0,0,0,1108.21,21.54Z"/><path class="cls-4" d="M1087.27,42.72a12.44,12.44,0,0,0-4.43,4.25c-2.4,4-1.3,9.47,1.86,12.76,3.71,3.27,8.94,3.62,13.65,3.38,3.66-.38,7.85-1.18,10-4.57.79-2.09,0-4.36-1.09-6.2a29.86,29.86,0,0,0-8.11-8.24,15.82,15.82,0,0,0-5.83-2.41A11.28,11.28,0,0,0,1087.27,42.72Z"/><path class="cls-4" d="M1139.75,24.65a9.55,9.55,0,0,0-5.75,8.2c0,4.17.48,8.56,2.77,12.15.87,1.34,2.16,2.78,3.9,2.73,2.73.06,4.79-2.08,6.49-3.95,2.38-2.86,4.41-6.25,4.82-10a9,9,0,0,0-12.23-9.13Z"/><path class="cls-4" d="M1091.48,73.14a9.29,9.29,0,0,0-5.31,5.07c-2.32,4.65.85,10.79,5.79,12.06,4,1.27,8.12-1,11.44-3.1,2.43-1.83,5.13-4,5.68-7.17.44-2.92-2.47-4.72-4.78-5.71C1100.25,72.85,1095.71,72,1091.48,73.14Z"/><path class="cls-4" d="M1119.22,55.31c-3.84,2.43-4.39,7.29-5.3,11.35-.89,5.73-1.1,11.71.45,17.35,1.35,4.16,4,8.29,8.29,9.9,6,2.81,14.1.06,16.77-6.09,1.08-2.29.83-4.87,1.31-7.29a1.56,1.56,0,0,1,1.51-1.23c2.78-.38,5.77-.36,8.21-1.94a13,13,0,0,0,5.06-15.58c-1.5-4.24-5.36-7.17-9.48-8.61s-8.46-1.35-12.71-1.12A33.87,33.87,0,0,0,1119.22,55.31Z"/><path class="cls-4" d="M1231.34,403.34c2.86,1.86,5.11,5,5.17,8.45.16,4.46-2.52,8.45-5.54,11.51-2.53,2.59-5.5,5.36-9.29,5.71-2.34.29-4-1.78-5-3.59a25.39,25.39,0,0,1-1.2-13.94c.66-3,2-6.23,4.86-7.82A10.59,10.59,0,0,1,1231.34,403.34Z"/><path class="cls-4" d="M1252.28,424.52a12.44,12.44,0,0,1,4.43,4.25c2.4,4,1.3,9.47-1.87,12.76-3.7,3.27-8.93,3.62-13.64,3.38-3.66-.38-7.85-1.19-10-4.57-.78-2.09.06-4.36,1.1-6.2a29.86,29.86,0,0,1,8.11-8.24,15.82,15.82,0,0,1,5.83-2.41A11.29,11.29,0,0,1,1252.28,424.52Z"/><path class="cls-4" d="M1199.8,406.45a9.55,9.55,0,0,1,5.75,8.2c0,4.17-.48,8.56-2.77,12.15-.88,1.34-2.16,2.78-3.9,2.73-2.73.06-4.79-2.08-6.49-3.95-2.38-2.86-4.41-6.25-4.82-10a9,9,0,0,1,12.23-9.13Z"/><path class="cls-4" d="M1248.07,454.94a9.29,9.29,0,0,1,5.31,5.07c2.32,4.65-.85,10.79-5.79,12.06-4.06,1.27-8.12-1-11.44-3.1-2.43-1.83-5.13-4-5.69-7.17-.43-2.92,2.48-4.72,4.79-5.71C1239.3,454.65,1243.84,453.81,1248.07,454.94Z"/><path class="cls-4" d="M1220.33,437.11c3.84,2.43,4.39,7.29,5.3,11.35.89,5.73,1.1,11.71-.45,17.35-1.35,4.16-4,8.29-8.29,9.9-6,2.81-14.1.06-16.77-6.09-1.08-2.29-.83-4.87-1.31-7.29a1.56,1.56,0,0,0-1.51-1.23c-2.78-.38-5.77-.36-8.22-1.94a13,13,0,0,1-5-15.58c1.49-4.24,5.36-7.17,9.48-8.61s8.46-1.35,12.71-1.12A33.87,33.87,0,0,1,1220.33,437.11Z"/><path class="cls-4" d="M1231.34,148.81c2.86,1.86,5.11,4.94,5.17,8.45.16,4.46-2.52,8.45-5.54,11.5-2.53,2.6-5.5,5.37-9.29,5.72-2.34.29-4-1.78-5-3.6a25.35,25.35,0,0,1-1.2-13.93c.66-3,2-6.23,4.86-7.82A10.59,10.59,0,0,1,1231.34,148.81Z"/><path class="cls-4" d="M1252.28,170a12.47,12.47,0,0,1,4.43,4.26c2.4,4,1.3,9.47-1.87,12.76-3.7,3.27-8.93,3.62-13.64,3.37-3.66-.37-7.85-1.18-10-4.56-.78-2.09.06-4.36,1.1-6.2a30,30,0,0,1,8.11-8.25,16,16,0,0,1,5.83-2.4A11.38,11.38,0,0,1,1252.28,170Z"/><path class="cls-4" d="M1199.8,151.91a9.57,9.57,0,0,1,5.75,8.21c0,4.17-.48,8.56-2.77,12.15-.88,1.34-2.16,2.78-3.9,2.73-2.73.06-4.79-2.09-6.49-3.95-2.38-2.86-4.41-6.25-4.82-10a9,9,0,0,1,12.23-9.13Z"/><path class="cls-4" d="M1248.07,200.4a9.31,9.31,0,0,1,5.31,5.08c2.32,4.65-.85,10.78-5.79,12.06-4.06,1.26-8.12-1-11.44-3.11-2.43-1.82-5.13-4-5.69-7.17-.43-2.92,2.48-4.72,4.79-5.7C1239.3,200.12,1243.84,199.28,1248.07,200.4Z"/><path class="cls-4" d="M1220.33,182.58c3.84,2.43,4.39,7.29,5.3,11.34.89,5.74,1.1,11.71-.45,17.35-1.35,4.17-4,8.3-8.29,9.9-6,2.82-14.1.06-16.77-6.08-1.08-2.29-.83-4.87-1.31-7.3a1.55,1.55,0,0,0-1.51-1.22c-2.78-.39-5.77-.37-8.22-1.94a13,13,0,0,1-5-15.59c1.49-4.23,5.36-7.16,9.48-8.61s8.46-1.34,12.71-1.11A33.87,33.87,0,0,1,1220.33,182.58Z"/><path class="cls-4" d="M1290.21,276.07c-2.86,1.86-5.11,4.95-5.18,8.46-.15,4.45,2.53,8.44,5.55,11.5,2.53,2.59,5.5,5.37,9.29,5.71,2.34.29,4-1.77,5.05-3.59a25.38,25.38,0,0,0,1.2-13.94c-.66-3-2-6.23-4.86-7.81A10.61,10.61,0,0,0,1290.21,276.07Z"/><path class="cls-4" d="M1269.27,297.25a12.39,12.39,0,0,0-4.43,4.26c-2.4,4-1.3,9.47,1.86,12.76,3.71,3.26,8.94,3.61,13.65,3.37,3.66-.38,7.85-1.18,10-4.57.79-2.08,0-4.35-1.09-6.19a29.9,29.9,0,0,0-8.11-8.25,16,16,0,0,0-5.83-2.4A11.27,11.27,0,0,0,1269.27,297.25Z"/><path class="cls-4" d="M1321.75,279.18a9.55,9.55,0,0,0-5.75,8.2c0,4.17.48,8.56,2.77,12.16.87,1.33,2.16,2.77,3.9,2.73,2.73.06,4.79-2.09,6.49-4,2.38-2.85,4.41-6.24,4.82-10a9,9,0,0,0-12.23-9.13Z"/><path class="cls-4" d="M1273.48,327.67a9.29,9.29,0,0,0-5.31,5.07c-2.32,4.65.85,10.79,5.79,12.06,4,1.27,8.12-1,11.44-3.1,2.43-1.83,5.13-4,5.68-7.17.44-2.92-2.47-4.72-4.78-5.7C1282.25,327.38,1277.71,326.54,1273.48,327.67Z"/><path class="cls-4" d="M1301.22,309.84c-3.84,2.43-4.39,7.29-5.3,11.35-.89,5.73-1.1,11.71.45,17.35,1.35,4.16,4,8.29,8.29,9.9,6,2.81,14.1.06,16.77-6.08,1.08-2.29.83-4.88,1.31-7.3a1.54,1.54,0,0,1,1.51-1.22c2.78-.39,5.77-.37,8.21-1.95a13,13,0,0,0,5.06-15.58c-1.5-4.24-5.36-7.17-9.48-8.61s-8.46-1.35-12.71-1.12A34,34,0,0,0,1301.22,309.84Z"/><path class="cls-4" d="M1290.21,21.54c-2.86,1.86-5.11,4.95-5.18,8.45-.15,4.46,2.53,8.45,5.55,11.51,2.53,2.59,5.5,5.36,9.29,5.71,2.34.29,4-1.78,5.05-3.59a25.39,25.39,0,0,0,1.2-13.94c-.66-3-2-6.23-4.86-7.82A10.59,10.59,0,0,0,1290.21,21.54Z"/><path class="cls-4" d="M1269.27,42.72a12.44,12.44,0,0,0-4.43,4.25c-2.4,4-1.3,9.47,1.86,12.76,3.71,3.27,8.94,3.62,13.65,3.38,3.66-.38,7.85-1.18,10-4.57.79-2.09,0-4.36-1.09-6.2a29.86,29.86,0,0,0-8.11-8.24,15.82,15.82,0,0,0-5.83-2.41A11.28,11.28,0,0,0,1269.27,42.72Z"/><path class="cls-4" d="M1321.75,24.65a9.55,9.55,0,0,0-5.75,8.2c0,4.17.48,8.56,2.77,12.15.87,1.34,2.16,2.78,3.9,2.73,2.73.06,4.79-2.08,6.49-3.95,2.38-2.86,4.41-6.25,4.82-10a9,9,0,0,0-12.23-9.13Z"/><path class="cls-4" d="M1273.48,73.14a9.29,9.29,0,0,0-5.31,5.07c-2.32,4.65.85,10.79,5.79,12.06,4,1.27,8.12-1,11.44-3.1,2.43-1.83,5.13-4,5.68-7.17.44-2.92-2.47-4.72-4.78-5.71C1282.25,72.85,1277.71,72,1273.48,73.14Z"/><path class="cls-4" d="M1301.22,55.31c-3.84,2.43-4.39,7.29-5.3,11.35-.89,5.73-1.1,11.71.45,17.35,1.35,4.16,4,8.29,8.29,9.9,6,2.81,14.1.06,16.77-6.09,1.08-2.29.83-4.87,1.31-7.29a1.56,1.56,0,0,1,1.51-1.23c2.78-.38,5.77-.36,8.21-1.94a13,13,0,0,0,5.06-15.58c-1.5-4.24-5.36-7.17-9.48-8.61s-8.46-1.35-12.71-1.12A33.87,33.87,0,0,0,1301.22,55.31Z"/></g></g></g></svg>